# xmcd
# Track frame offsets:
# 150
# 11535
# 21212
# 33450
# 50152
# 64791
# 79460
# 93048
# 105042
# 120890
# 135201
# 148894
# 161932
# 171942
# 182649
# 203141
# 217276
# 232986
# 246428
# 281489
#
# Disc length: 4004 seconds
# Revision: 1
# Processed by: cddbd v1.5.2PL0 Copyright (c) Steve Scherf et al.
# Submitted via: VisiTrax 2.11.3.279 - For more info visit www.synapsa.com
#
DISCID=180fa214
DTITLE=Slim Dusty - Pubs, Trucks and Plains Disc 3 - Plains
DYEAR=2007
DGENRE=Australian Country
TTITLE0=Hard, Hard Country
TTITLE1=Back To The Old Saltbush Plains
TTITLE2=When The Rain Tumbles Down In July
TTITLE3=Land Of No Second Chance
TTITLE4=The Birdsville Track
TTITLE5=Plains Of Peppimenarti
TTITLE6=By A Fire Of A Gidgee Coal
TTITLE7=Things I See Around Me
TTITLE8=Indian Pacific
TTITLE9=Cattlemen From The High Plains
TTITLE10=Things Are Not The Same On The Land
TTITLE11=Walk A Country Mile
TTITLE12=Cunnamulla Fella
TTITLE13=Keela Valley
TTITLE14=Paddy William
TTITLE15=The Drovers Are Back
TTITLE16=Trumby
TTITLE17=Gumtrees By The Roadway
TTITLE18=The Man From Snowy River
TTITLE19=End Of The Bitumen
EXTD=2007 EMI Music Pty Limited Australia
EXTT0=
EXTT1=
EXTT2=
EXTT3=
EXTT4=
EXTT5=
EXTT6=
EXTT7=
EXTT8=
EXTT9=
EXTT10=
EXTT11=
EXTT12=
EXTT13=
EXTT14=
EXTT15=
EXTT16=
EXTT17=
EXTT18=
EXTT19=
PLAYORDER=
